<svg width="689" height="642" viewBox="0 0 689 642" fill="none" xmlns="http://www.w3.org/2000/svg">
<path opacity="0.11" d="M897.215 -187.434C958.578 -127.809 991.064 -50.9589 988.898 19.2664C986.011 88.8292 948.471 151.104 923.926 215.367C899.381 279.63 887.109 347.205 844.516 441.281C801.923 534.693 728.288 655.931 667.647 640.694C606.284 625.456 556.472 474.406 446.742 400.868C336.289 326.668 164.474 330.643 75.6783 265.717C-13.117 200.792 -19.6142 66.9666 34.5293 -37.0463C88.6727 -141.059 202.735 -215.922 316.797 -259.647C430.138 -303.372 542.756 -316.622 643.824 -302.71C745.614 -288.135 835.853 -247.06 897.215 -187.434Z" fill="#37E769"/>
</svg>
